<svg height='100px' width='100px'  fill="#000000" xmlns="http://www.w3.org/2000/svg" xmlns:xlink="http://www.w3.org/1999/xlink" xml:space="preserve" version="1.1" style="shape-rendering:geometricPrecision;text-rendering:geometricPrecision;image-rendering:optimizeQuality;" viewBox="0 0 60000 60000" x="0px" y="0px" fill-rule="evenodd" clip-rule="evenodd"><defs><style type="text/css">
   
    .fil0 {fill:#000000;fill-rule:nonzero}
   
  </style></defs><g>
  <path class="fil0" d="M41670.31 37784.72l-19949.12 -28515.48 -12536.53 12536.53 28630.3 20029.44c102.61,-282.18 224.09,-559.03 364.24,-828.7l-22753.06 -18726.02c-19.5,-13.5 -38.06,-28.92 -55.42,-46.28 -156.2,-156.21 -156.2,-409.48 0,-565.69l6213.22 -6213.22 0.96 0.97c8.79,-8.77 18.02,-17.22 27.77,-25.28 169.63,-140.34 420.92,-116.6 561.27,53.04l18686.91 22705.53c262.6,-153.49 533.03,-288.48 809.46,-404.84zm-19567.92 -29365.14l6369.47 9104.58 7527.19 -7527.18 0.98 0.97c39.2,-39.26 87.26,-70.93 142.65,-91.57 206.25,-76.89 435.77,27.99 512.66,234.23l3379.07 9031.56 9927.69 -9927.69 0.69 0.69c69.34,-69.36 164.23,-113.48 269.99,-116.7 220.28,-6.72 404.3,166.42 411.02,386.7l1191.4 40846.02 -0.2 0.01 0.19 13.25 -4.68 970.45c-0.57,218.25 -176.74,395.93 -395.53,397.75l-984.49 7.53c-7.26,0.21 -14.56,0.24 -21.9,0.06l-40967.21 -1021.16c-108.48,5.03 -218.64,-33.87 -301.48,-116.72 -156.21,-156.2 -156.21,-409.48 0,-565.68l9927.69 -9927.7 -8999.65 -3367.13c-64.3,-17.83 -125,-51.99 -175.54,-102.53 -156.21,-156.21 -156.21,-409.48 0,-565.69l7527.18 -7527.19 -9090.26 -6359.44c-23.88,-15.29 -46.48,-33.35 -67.36,-54.22 -156.2,-156.21 -156.2,-409.48 0,-565.68l13210.55 -13210.56 0.18 0.18c16.06,-16.01 33.67,-30.89 52.86,-44.37 180.61,-126.93 429.92,-83.38 556.84,97.23zm6835.17 9770.25l2658.32 3799.85 4062.72 -4062.72 1.26 1.27c33.44,-33.45 73.42,-61.48 119.17,-81.93 200.74,-89.7 436.21,0.34 525.91,201.09l8545.86 19205.92c390.98,25.93 780.2,84.5 1163.22,175.79l-9887.78 -26427.95 -7188.68 7188.68zm3124.02 4465.52l10391.49 14853.7c498.79,-142.97 1010.34,-229.4 1524.58,-259.32l-8163.59 -18346.86 -3752.48 3752.48zm5513.77 19987.84l-15004.58 -10497.03 -3726.41 3726.41 18550.38 8254.16c7.3,-498.19 67.46,-995.77 180.61,-1483.54zm-15670.25 -10962.73l-3799.84 -2658.32 -7188.69 7188.69 26766.74 10014.51c-119.51,-402.72 -201.95,-814.09 -247.43,-1228.74 -39.47,-4.53 -78.92,-15.07 -117.12,-32.14l-19329.88 -8601.01c-200.75,-89.7 -290.79,-325.17 -201.09,-525.91 20.45,-45.75 48.48,-85.73 81.93,-119.16l-1.27 -1.27 4036.65 -4036.65zm18437.35 -11684.96l1784.19 4768.77 4075.03 -4075.03 0.44 0.44c59.28,-59.37 137.67,-100.64 227.16,-113.14 218.45,-30.51 420.27,121.85 450.78,340.3l2607.77 18531.9c548.35,584.48 977.42,1240.14 1287.13,1936.06l-901.88 -30919.92 -9530.62 9530.62zm2092.16 5591.91l4544.83 12147.38c556.34,221.81 1089.92,517.97 1585.57,888.34l-2364.28 -16801.58 -3757.84 3757.83 -8.28 8.03zm-4515.55 21577.19l-12416.04 -4645.34 -3739.31 3739.31 17215.77 2405.79c-377.46,-459.11 -687.59,-955.04 -930.24,-1474.68 -43.35,-0.99 -87.27,-9.09 -130.18,-25.08zm-13239.37 -4953.39l-4770.53 -1784.84c-7.8,9.35 -16.04,18.46 -24.83,27.24l-9500.27 9500.27 31440.13 783.68c-682.76,-268.34 -1331.8,-648.19 -1919.14,-1139.58 -13.92,-0.47 -27.94,-1.67 -42.04,-3.63l-19004.68 -2655.79c-218.45,-30.51 -370.81,-232.33 -340.3,-450.78 12.5,-89.49 53.77,-167.88 113.14,-227.16l-0.44 -0.44 4048.96 -4048.97zm21940.07 8645.9l3825.38 95.35 589.57 -4.51 2.73 -564.12 -107.53 -3686.42c-339.89,903.06 -873.15,1749.92 -1599.83,2476.6 -789.04,789.05 -1719.78,1350.08 -2710.32,1683.1zm-7177.98 -11571.41c238.33,-238.34 489.64,-455.8 751.57,-652.52l-18354.4 -22301.52 -5591.87 5591.87 22344.88 18390.09c245.54,-362.42 528.8,-706.9 849.82,-1027.92zm4944.15 -1247.98c-1584.65,0 -3169.36,604.56 -4378.47,1813.67 -1209.1,1209.1 -1813.66,2793.8 -1813.66,4378.46 0,1584.65 604.57,3169.36 1813.67,4378.47 1209.1,1209.1 2793.82,1813.67 4378.47,1813.66 1584.65,0 3169.36,-604.55 4378.46,-1813.66 1209.11,-1209.11 1813.67,-2793.82 1813.66,-4378.47 0.01,-1584.64 -604.55,-3169.35 -1813.66,-4378.46 -1209.1,-1209.11 -2793.82,-1813.68 -4378.47,-1813.67zm-2288.35 3903.78c631.88,-631.88 1460.11,-947.83 2288.35,-947.82 828.24,-0.01 1656.48,315.94 2288.35,947.82 631.89,631.89 947.83,1460.11 947.82,2288.35 0.01,828.25 -315.93,1656.47 -947.82,2288.36 -631.87,631.88 -1460.11,947.82 -2288.35,947.82 -828.24,0 -1656.48,-315.94 -2288.35,-947.82 -631.88,-631.88 -947.83,-1460.11 -947.82,-2288.36 -0.01,-828.24 315.94,-1656.47 947.82,-2288.35zm2288.35 -147.91c-623.45,-0.01 -1246.93,237.86 -1722.67,713.6 -475.72,475.72 -713.6,1099.22 -713.6,1722.66 0,623.45 237.88,1246.95 713.6,1722.67 475.73,475.73 1099.22,713.61 1722.67,713.6 623.45,0.01 1246.94,-237.87 1722.67,-713.6 475.73,-475.73 713.6,-1099.22 713.6,-1722.67 0,-623.44 -237.87,-1246.93 -713.6,-1722.66 -475.73,-475.73 -1099.22,-713.61 -1722.67,-713.6z">
  </path>
  </g>
</svg>