<svg height='100px' width='100px'  xmlns="http://www.w3.org/2000/svg" xmlns:xlink="http://www.w3.org/1999/xlink" xml:space="preserve" version="1.1" style="shape-rendering:geometricPrecision;text-rendering:geometricPrecision;image-rendering:optimizeQuality;" viewBox="0 0 60000 60000" x="0px" y="0px" fill-rule="evenodd" clip-rule="evenodd"><defs><style type="text/css">
   
    <!-- .fil0 {fill:#000000;fill-rule:nonzero} -->
   
  </style></defs><g><path class="fil0" d="M2070.04 3789.99c-220.91,0 -400,-179.09 -400,-400 0,-220.91 179.09,-400 400,-400l44641.29 0c220.91,0 400,179.09 400,400l0 3837.21 2637.43 0 0 -5112.48c0,-220.91 179.09,-400 400,-400l7781.2 0c220.91,0 400,179.09 400,400l0 7781.2c0,220.91 -179.09,400 -400,400l-5148.49 0 0 2548.07 3783.45 0c220.91,0 400,179.09 400,400l0 44641.3c0,220.91 -179.09,400 -400,400 -220.91,0 -400,-179.09 -400,-400l0 -44241.3 -3383.45 0 0 38737.52c0,138.07 -111.93,250 -250,250 -138.07,0 -250,-111.93 -250,-250l0 -38737.52 -5556.28 0c-116.24,0 -220.87,-49.6 -293.96,-128.77 -73.99,-72.59 -119.9,-173.68 -119.9,-285.51l0 -5502.51 -38674.04 0c-138.07,0 -250,-111.93 -250,-250 0,-138.07 111.93,-250 250,-250l38674.04 0 0 -3437.21 -44241.29 0zm45041.29 3937.21l0 5116.79 5170.14 0 0 -2548.07 -2132.71 0c-220.91,0 -400,-179.09 -400,-400l0 -2168.72 -2637.43 0zm3437.43 -500l1988.74 0c138.07,0 250,111.93 250,250 0,18.81 -2.09,37.14 -6.03,54.76l0 1963.96 4748.49 0 0 -6981.2 -6981.2 0 0 4712.48zm1732.71 500l-1732.71 0 0 1768.72 1732.71 0 0 -1768.72z"></path></g></svg>