<svg height='100px' width='100px'  fill="#000000" xmlns="http://www.w3.org/2000/svg" xmlns:xlink="http://www.w3.org/1999/xlink" xml:space="preserve" version="1.1" style="shape-rendering:geometricPrecision;text-rendering:geometricPrecision;image-rendering:optimizeQuality;" viewBox="0 0 60000 60000" x="0px" y="0px" fill-rule="evenodd" clip-rule="evenodd"><defs><style type="text/css">
   
    .fil0 {fill:#000000;fill-rule:nonzero}
   
  </style></defs><g><path class="fil0" d="M30000 44076l9010 -1843 0 -36 176 0 18821 -3850 0 -8669c0,-11 0,-22 1,-33l-42 -8221 -12175 -2494c-52,25 -111,39 -172,39 -120,0 -227,-53 -300,-136l-15319 -3138 -27967 5729 -42 8254 2 0 0 8669 18821 3850 405 0 0 83 8781 1796zm-16002 1392l-5082 2405c-125,59 -273,5 -332,-119 -18,-39 -26,-80 -24,-120l-53 -7024c0,-40 9,-78 26,-112l-6988 -1429c-198,-24 -352,-192 -352,-397l0 -8994 2 0 44 -8567c-6,-191 126,-364 319,-403l6951 -1424 52 -6919c-2,-40 5,-81 24,-120 59,-125 207,-178 332,-119l5082 2405 0 -4693c0,-162 97,-302 236,-365l15581 -8662c127,-70 275,-64 392,3l15606 8676c131,73 205,209 205,348l1 0 0 4680 5054 -2392c125,-59 273,-5 332,119 18,39 26,80 24,120l52 6917 6963 1426 0 0c181,37 318,197 319,389l43 8544c1,12 2,25 2,37l0 8994 -1 0c0,186 -130,352 -319,391l-7030 1438c16,33 25,70 25,109l-53 7024c2,40 -5,81 -24,120 -59,125 -207,178 -332,119l-5054 -2392 0 4680 -1 0c0,140 -74,276 -205,348l-15606 8676c-117,67 -266,73 -392,3l-15581 -8662c-139,-63 -236,-202 -236,-365l0 -4693zm-4993 -4872c0,4 0,9 0,13l50 6646 4942 -2339 0 -3274c0,-8 0,-16 1,-25l-4994 -1021zm30505 2349l0 6675c0,100 -58,186 -143,226l-9239 5111c-82,45 -179,39 -254,-8l-9030 -5113c-81,-46 -126,-130 -126,-217l-1 0 0 -6628 -5921 -1211 0 8147 15210 8456 15210 -8456 0 -8150 -5708 1168zm-18292 149l0 6381 8791 4978 9001 -4980 0 -6426 -2574 526 0 2 -48 4892c0,31 -6,62 -18,92 -51,128 -195,190 -323,140l-6043 -2414 -6043 2414c-128,51 -273,-12 -323,-140 -12,-30 -18,-61 -18,-92l-48 -4892 0 0 -2354 -481zm24800 -1480l0 3316 4914 2326 50 -6646c0,-4 0,-7 0,-11l-4965 1015zm-15343 4404l5218 2084 41 -4185 -5259 2100zm-1343 0l-5259 -2100 41 4185 5218 -2084zm-15335 -30934l-4942 -2339 -48 6438 4991 -1022 0 -3076zm27929 2241l0 -6799 -11813 -6567 -11813 6567 0 6752 5272 -1080 46 -5447c-2,-39 5,-80 23,-118 58,-125 206,-180 331,-122l6030 2787 6030 -2787c125,-58 273,-3 331,122 18,38 25,79 23,118l46 5448 5493 1125zm-24125 56l0 -7001 1 0c0,-87 46,-172 128,-218l12059 -6704c73,-42 166,-46 245,-2l12044 6696c87,39 147,127 147,228l0 7048 2792 572 0 -7927 -15210 -8456 -15210 8456 0 7924 3004 -615zm28217 -2310l0 3093 4963 1017 -48 -6436 -4914 2326zm-21946 968l5336 -2466 -5294 -2447 -42 4913zm11820 -4913l-5294 2447 5336 2466 -42 -4913z"></path></g></svg>