<svg height='100px' width='100px'  fill="#000000" xmlns="http://www.w3.org/2000/svg" xmlns:xlink="http://www.w3.org/1999/xlink" xml:space="preserve" version="1.1" style="shape-rendering:geometricPrecision;text-rendering:geometricPrecision;image-rendering:optimizeQuality;" viewBox="0 0 60000 60000" x="0px" y="0px" fill-rule="evenodd" clip-rule="evenodd"><defs><style type="text/css">
   
    .fil0 {fill:#000000;fill-rule:nonzero}
   
  </style></defs><g><path class="fil0" d="M3311.52 28394.05l-2224.11 1551.52 2219.83 1563.52 2224.11 -1551.52 -2219.83 -1563.52zm33556.39 4325.3c-7.14,58.22 -34.74,114.15 -82.12,156.07l-6610.88 5839.34c-35.7,31.59 -77.94,51.07 -121.69,58.75l-0.57 0.11 -0.58 0.09c-11.38,2.03 -22.87,3.26 -34.37,3.69 -51.48,3.69 -104.55,-8.45 -151.48,-38.22 -29.18,-18.51 -53.22,-42.09 -71.7,-68.85l-6737.29 -5950.98 -13588.98 0c-138.07,0 -250,-111.93 -250,-250 0,-138.07 111.93,-250 250,-250l13658.22 0c14.51,-1.27 29.13,-1.28 43.68,0l464.8 0c16.65,-1.67 33.45,-1.68 50.12,0l2442.65 0c19.54,-2.31 39.2,-2.27 58.54,0l1554.69 0 -1153.47 -1819.26 -20297.99 0 -2733.2 1906.67c-135.16,109.28 -331.4,120.87 -480.62,15.91l-2912.73 -2051.56 0.46 -0.65c-36.91,-25.96 -70,-58.66 -97.33,-97.78 -125.99,-180.35 -81.92,-428.7 98.43,-554.69l2897.97 -2021.61c135.16,-109.28 331.4,-120.87 480.62,-15.91l2867.38 2019.62 20176.89 0 1153.59 -1819.44 -18272.7 0c-138.07,0 -250,-111.93 -250,-250 0,-138.07 111.93,-250 250,-250l13617.49 0c13.91,-28.45 33.51,-54.72 58.7,-77.01l6650.21 -5874.08c51.92,-75.08 138.41,-113.34 224.25,-106.91 12.09,0.52 24.15,1.91 36.08,4.18l0.51 0.09 1.5 0.3c43.16,8.3 84.4,27.97 118.81,58.8l6786.67 5994.63 13569.3 0c138.07,0 250,111.93 250,250 0,138.07 -111.93,250 -250,250l-18272.7 0 1153.58 1819.44 20176.89 0 2867.38 -2019.62c149.22,-104.96 345.46,-93.37 480.62,15.91l2897.97 2021.61c180.35,125.99 224.42,374.34 98.43,554.69 -27.33,39.12 -60.42,71.82 -97.33,97.78l0.46 0.65 -2912.71 2051.55c-149.22,104.96 -345.46,93.37 -480.62,-15.91l-2733.19 -1906.66 -20298.01 0 -1153.47 1819.26 18272.7 0c138.07,0 250,111.93 250,250 0,138.07 -111.93,250 -250,250l-13663.86 0zm-12582.96 0l4399.27 4200.1 -2663.01 -4200.1 -1736.26 0zm7005.77 4239.66l4440.69 -4239.66 -1781.1 0c-4.36,35.68 -16.5,70.97 -37.03,103.34l-2622.56 4136.32zm4440.69 -9678.36l-4440.7 -4239.67 2688.09 4239.67 1752.61 0zm-7047.2 -4200.09l-4399.25 4200.09 1738.08 0c4.03,-8.24 8.54,-16.35 13.57,-24.28l2647.6 -4175.81zm-2071.46 9638.79l3387.26 5342.4 3387.26 -5342.4 -1445.22 0 -1604.54 2530.69c-118.22,186.39 -365.17,241.66 -551.56,123.44 -53.56,-33.97 -96.27,-78.59 -127.17,-129.33l-1600.81 -2524.8 -1445.22 0zm6774.52 -5438.7l-3387.26 -5342.4 -3387.26 5342.4 1445.22 0 1604.54 -2530.69c118.22,-186.39 365.17,-241.66 551.56,-123.44 53.56,33.97 96.27,78.59 127.17,129.33l1600.81 2524.8 1445.22 0zm25525.33 2664.92l-2224.11 -1551.52 -2219.81 1563.51 2224.11 1551.52 2219.81 -1563.51zm-28912.59 -4235.18l-2719.76 4289.61 2719.76 4289.61 2719.76 -4289.61 -2719.76 -4289.61z"></path></g></svg>